<svg width="20" height="20" viewBox="0 0 20 20" fill="none" xmlns="http://www.w3.org/2000/svg">
<path d="M17.8729 9.95729C17.8729 14.2942 14.3571 17.81 10.0201 17.81C5.68316 17.81 2.16736 14.2942 2.16736 9.95729C2.16736 5.62034 5.68316 2.10454 10.0201 2.10454C14.3571 2.10454 17.8729 5.62034 17.8729 9.95729ZM4.52319 9.95729C4.52319 12.9932 6.98425 15.4542 10.0201 15.4542C13.056 15.4542 15.517 12.9932 15.517 9.95729C15.517 6.92142 13.056 4.46036 10.0201 4.46036C6.98425 4.46036 4.52319 6.92142 4.52319 9.95729Z" fill="black"/>
<path d="M8.44957 0H11.5907V3.1411H8.44957V0Z" fill="black"/>
<path d="M14.688 0.942331L17.2101 2.81466L15.3378 5.33674L12.8157 3.46441L14.688 0.942331Z" fill="black"/>
<path d="M1.47642 5.08858L4.26541 6.53359L2.82041 9.32258L0.031414 7.87758L1.47642 5.08858Z" fill="black"/>
<path d="M2.82699 2.81469L5.34905 0.942331L7.22141 3.46439L4.69936 5.33675L2.82699 2.81469Z" fill="black"/>
<path d="M15.7683 6.52876L18.5598 5.08859L20 7.88007L17.2085 9.32025L15.7683 6.52876Z" fill="black"/>
<path d="M15.517 13.3682L17.1414 10.6797L19.8299 12.3041L18.2055 14.9926L15.517 13.3682Z" fill="black"/>
<path d="M2.68845 10.6797L4.31287 13.3682L1.62442 14.9926L0 12.3042L2.68845 10.6797Z" fill="black"/>
<path d="M8.44957 19.9146H11.5907V16.7735H8.44957V19.9146Z" fill="black"/>
<path d="M14.5851 19.0504L17.0279 17.0758L15.2585 14.4805L12.8157 16.4551L14.5851 19.0504Z" fill="black"/>
<path d="M2.92123 17.0758L5.36401 19.0504L7.13348 16.4552L4.6907 14.4805L2.92123 17.0758Z" fill="black"/>
</svg>
