<svg width="139" height="126" viewBox="0 0 139 126" fill="none" xmlns="http://www.w3.org/2000/svg">
<path d="M68.2753 18.2608L111.44 44.1613V109.475C111.44 118.045 104.457 125 95.8321 125H84.3762V92.9508C84.3762 87.8307 80.2059 83.6885 75.0722 83.6885H66.7683C61.6346 83.6885 57.4643 87.8307 57.4643 92.9508V125H46.0084C37.3837 125 30.4006 118.045 30.4006 109.475V44.4996L68.2753 18.2608ZM82.3762 92.9508V125H59.4643V92.9508C59.4643 88.9447 62.7297 85.6885 66.7683 85.6885H75.0722C79.1108 85.6885 82.3762 88.9447 82.3762 92.9508ZM3.82495 44.9167L68.6802 1.31504L134.864 40.8659C137.948 42.7093 138.924 46.6992 137.041 49.7435C135.182 52.7486 131.233 53.7053 128.191 51.8803L112.954 42.7377L111.44 41.8289L68.7509 16.2137L68.5284 16.0802L68.2066 16.6165L67.8596 16.1157L67.6669 16.2492L30.4006 42.0665L28.8311 43.1538L11.0927 55.4426C8.1858 57.4565 4.1899 56.7482 2.1606 53.8646C0.105714 50.9447 0.852728 46.9149 3.82495 44.9167Z" stroke="black" stroke-width="2"/>
</svg>
