<svg width="21" height="28" viewBox="0 0 21 28" fill="none" xmlns="http://www.w3.org/2000/svg">
<path d="M19.5416 15.8404C20.8196 14.9317 20.8196 13.0339 19.5416 12.1251L4.10031 1.14559C2.59118 0.0725187 0.500061 1.15149 0.500061 3.00323V24.9623C0.500061 26.8141 2.59118 27.893 4.10031 26.82L19.5416 15.8404Z" fill="#2541B2"/>
<path d="M15.9705 15.8024C17.2485 14.8937 17.2485 12.9959 15.9705 12.0871L5.94279 4.95689C4.43366 3.88382 2.34254 4.96278 2.34254 6.81452V21.075C2.34254 22.9268 4.43366 24.0057 5.94279 22.9327L15.9705 15.8024Z" fill="white"/>
<path d="M12.3995 15.9164C13.6775 15.0077 13.6775 13.1098 12.3995 12.2011L7.78528 8.92014C6.27615 7.84707 4.18503 8.92604 4.18503 10.7778V17.3397C4.18503 19.1915 6.27615 20.2704 7.78528 19.1974L12.3995 15.9164Z" fill="#2541B2"/>
</svg>
