<svg width="25" height="14" viewBox="0 0 25 14" fill="none" xmlns="http://www.w3.org/2000/svg">
<path d="M11.1408 12.5446C11.1408 11.813 10.9967 11.0887 10.7168 10.4129C10.4369 9.73703 10.0265 9.12295 9.50928 8.60569C8.99202 8.08843 8.37795 7.67812 7.70211 7.39818C7.02628 7.11824 6.30193 6.97415 5.57041 6.97415C4.83889 6.97415 4.11454 7.11824 3.43871 7.39818C2.76287 7.67812 2.1488 8.08843 1.63153 8.60569C1.11427 9.12295 0.703961 9.73703 0.424022 10.4129C0.144083 11.0887 -6.39512e-08 11.813 0 12.5446H1.11408C1.11408 11.9594 1.22935 11.3799 1.4533 10.8392C1.67725 10.2985 2.0055 9.80727 2.41931 9.39346C2.83312 8.97966 3.32438 8.6514 3.86505 8.42745C4.40571 8.2035 4.9852 8.08824 5.57041 8.08824C6.15562 8.08824 6.73511 8.2035 7.27577 8.42745C7.81644 8.6514 8.3077 8.97966 8.72151 9.39346C9.13532 9.80727 9.46357 10.2985 9.68752 10.8392C9.91147 11.3799 10.0267 11.9594 10.0267 12.5446H11.1408Z" fill="black"/>
<path d="M0.311943 11.8761H10.7843V12.5446H0.311943V11.8761Z" fill="black"/>
<path d="M8.89037 3.34225C8.89037 5.18812 7.394 6.68449 5.54813 6.68449C3.70226 6.68449 2.20588 5.18812 2.20588 3.34225C2.20588 1.49637 3.70226 0 5.54813 0C7.394 0 8.89037 1.49637 8.89037 3.34225ZM2.87433 3.34225C2.87433 4.81894 4.07143 6.01604 5.54813 6.01604C7.02483 6.01604 8.22192 4.81894 8.22192 3.34225C8.22192 1.86555 7.02483 0.668449 5.54813 0.668449C4.07143 0.668449 2.87433 1.86555 2.87433 3.34225Z" fill="black"/>
<path d="M25 12.5446C25 11.813 24.8559 11.0887 24.576 10.4129C24.296 9.73703 23.8857 9.12295 23.3685 8.60569C22.8512 8.08843 22.2371 7.67812 21.5613 7.39818C20.8855 7.11824 20.1611 6.97415 19.4296 6.97415C18.6981 6.97415 17.9737 7.11824 17.2979 7.39818C16.6221 7.67812 16.008 8.08843 15.4907 8.60569C14.9735 9.12295 14.5631 9.73703 14.2832 10.4129C14.0033 11.0887 13.8592 11.813 13.8592 12.5446H14.9733C14.9733 11.9594 15.0885 11.3799 15.3125 10.8392C15.5364 10.2985 15.8647 9.80727 16.2785 9.39346C16.6923 8.97966 17.1836 8.6514 17.7242 8.42745C18.2649 8.2035 18.8444 8.08824 19.4296 8.08824C20.0148 8.08824 20.5943 8.2035 21.135 8.42745C21.6756 8.6514 22.1669 8.97966 22.5807 9.39346C22.9945 9.80727 23.3227 10.2985 23.5467 10.8392C23.7707 11.3799 23.8859 11.9594 23.8859 12.5446H25Z" fill="black"/>
<path d="M14.1711 11.8761H24.6435V12.5446H14.1711V11.8761Z" fill="black"/>
<path d="M22.7496 3.34225C22.7496 5.18812 21.2532 6.68449 19.4073 6.68449C17.5614 6.68449 16.0651 5.18812 16.0651 3.34225C16.0651 1.49637 17.5614 0 19.4073 0C21.2532 0 22.7496 1.49637 22.7496 3.34225ZM16.7335 3.34225C16.7335 4.81894 17.9306 6.01604 19.4073 6.01604C20.884 6.01604 22.0811 4.81894 22.0811 3.34225C22.0811 1.86555 20.884 0.668449 19.4073 0.668449C17.9306 0.668449 16.7335 1.86555 16.7335 3.34225Z" fill="black"/>
<path d="M18.1818 13.9706C18.1818 13.2391 18.0377 12.5147 17.7578 11.8389C17.4779 11.1631 17.0675 10.549 16.5503 10.0317C16.033 9.51445 15.4189 9.10414 14.7431 8.8242C14.0673 8.54426 13.3429 8.40018 12.6114 8.40018C11.8799 8.40018 11.1555 8.54426 10.4797 8.8242C9.80387 9.10414 9.18979 9.51445 8.67253 10.0317C8.15527 10.549 7.74496 11.1631 7.46502 11.8389C7.18508 12.5147 7.041 13.2391 7.041 13.9706H8.15508C8.15508 13.3854 8.27035 12.8059 8.4943 12.2652C8.71825 11.7246 9.0465 11.2333 9.46031 10.8195C9.87412 10.4057 10.3654 10.0774 10.906 9.85348C11.4467 9.62953 12.0262 9.51426 12.6114 9.51426C13.1966 9.51426 13.7761 9.62953 14.3168 9.85348C14.8574 10.0774 15.3487 10.4057 15.7625 10.8195C16.1763 11.2333 16.5046 11.7246 16.7285 12.2652C16.9525 12.8059 17.0677 13.3854 17.0677 13.9706H18.1818Z" fill="black"/>
<path d="M7.35294 13.3021H17.8253V13.9706H7.35294V13.3021Z" fill="black"/>
<path d="M15.9314 4.76827C15.9314 6.61414 14.435 8.11052 12.5891 8.11052C10.7433 8.11052 9.24688 6.61414 9.24688 4.76827C9.24688 2.9224 10.7433 1.42603 12.5891 1.42603C14.435 1.42603 15.9314 2.9224 15.9314 4.76827ZM9.91533 4.76827C9.91533 6.24497 11.1124 7.44207 12.5891 7.44207C14.0658 7.44207 15.2629 6.24497 15.2629 4.76827C15.2629 3.29157 14.0658 2.09447 12.5891 2.09447C11.1124 2.09447 9.91533 3.29157 9.91533 4.76827Z" fill="black"/>
</svg>
