<svg width="110" height="83" viewBox="0 0 110 83" fill="none" xmlns="http://www.w3.org/2000/svg">
<g filter="url(#filter0_d_803_9)">
<path d="M105 22.7931V52.2685L75 73L45 52.2394V22.7931L54.4954 15.9783M54.4954 15.9783L35 2L5 22.7931V52.2685M54.4954 15.9783L64 22.7931V52.2685L54.5 58.5M54.4954 15.9783L54.5 15.975M56.3652 38.4629C56.209 38.4824 55.9974 38.515 55.7305 38.5605C55.4701 38.5996 55.2585 38.6582 55.0957 38.7363C54.9004 38.834 54.7604 38.974 54.6758 39.1562C54.5977 39.332 54.5586 39.5404 54.5586 39.7812V40.8555C54.5586 41.6367 54.5618 42.1641 54.5684 42.4375C54.5814 42.7109 54.5944 42.9355 54.6074 43.1113C53.7415 43.502 52.8789 43.8014 52.0195 44.0098C51.1602 44.2181 50.3171 44.3223 49.4902 44.3223C48.6048 44.3223 47.752 44.1562 46.9316 43.8242C46.1113 43.4922 45.3952 43.0202 44.7832 42.4082C44.1647 41.7897 43.6732 41.0378 43.3086 40.1523C42.944 39.2669 42.7617 38.2773 42.7617 37.1836C42.7617 36.1289 42.9342 35.1523 43.2793 34.2539C43.6309 33.349 44.1257 32.5645 44.7637 31.9004C45.3822 31.2493 46.1178 30.7448 46.9707 30.3867C47.8301 30.0221 48.748 29.8398 49.7246 29.8398C50.5059 29.8398 51.1862 29.9342 51.7656 30.123C52.3451 30.3118 52.8561 30.5397 53.2988 30.8066L53.6992 30.1426H54.4805L54.5684 34.9863H53.7676C53.6309 34.4525 53.4616 33.9284 53.2598 33.4141C53.0579 32.8932 52.7975 32.4277 52.4785 32.0176C52.1595 31.6074 51.7689 31.2819 51.3066 31.041C50.8509 30.7936 50.304 30.6699 49.666 30.6699C48.9694 30.6699 48.3477 30.8132 47.8008 31.0996C47.2539 31.3796 46.7786 31.7995 46.375 32.3594C45.9779 32.8997 45.6719 33.5736 45.457 34.3809C45.2422 35.1882 45.1348 36.0898 45.1348 37.0859C45.1348 37.9648 45.2389 38.7949 45.4473 39.5762C45.6621 40.3509 45.9714 41.0215 46.375 41.5879C46.7786 42.1673 47.2832 42.623 47.8887 42.9551C48.4941 43.2871 49.181 43.4531 49.9492 43.4531C50.5221 43.4531 51.043 43.3652 51.5117 43.1895C51.987 43.0137 52.3223 42.8281 52.5176 42.6328C52.5697 42.2943 52.5957 41.9525 52.5957 41.6074C52.6022 41.2624 52.6055 40.9694 52.6055 40.7285V39.9668C52.6055 39.6934 52.5664 39.4525 52.4883 39.2441C52.4167 39.0293 52.2637 38.873 52.0293 38.7754C51.8145 38.6777 51.5215 38.6061 51.1504 38.5605C50.7858 38.5085 50.4993 38.4759 50.291 38.4629V37.75H56.3652V38.4629ZM64.7441 39.4199C65.1738 39.7585 65.5286 40.1947 65.8086 40.7285C66.0951 41.2624 66.2383 41.9297 66.2383 42.7305C66.2383 44.1302 65.7598 45.2858 64.8027 46.1973C63.8457 47.1087 62.6315 47.5645 61.1602 47.5645C60.0208 47.5645 59.0573 47.2943 58.2695 46.7539C57.4818 46.2135 57.0879 45.5853 57.0879 44.8691C57.0879 44.5371 57.1693 44.2474 57.332 44C57.4948 43.7526 57.7454 43.6289 58.084 43.6289C58.4746 43.6289 58.7708 43.7331 58.9727 43.9414C59.181 44.1432 59.2852 44.3646 59.2852 44.6055C59.2852 44.8138 59.2493 45.0742 59.1777 45.3867C59.1061 45.6992 59.0508 45.9303 59.0117 46.0801C59.0638 46.1257 59.1484 46.1875 59.2656 46.2656C59.3828 46.3438 59.5228 46.4186 59.6855 46.4902C59.8548 46.5618 60.0599 46.6237 60.3008 46.6758C60.5482 46.7344 60.8346 46.7637 61.1602 46.7637C61.5768 46.7637 61.9707 46.679 62.3418 46.5098C62.7129 46.3405 63.0254 46.0898 63.2793 45.7578C63.5592 45.3932 63.7676 44.9766 63.9043 44.5078C64.0475 44.0456 64.1191 43.4564 64.1191 42.7402C64.1191 41.8223 63.862 41.0638 63.3477 40.4648C62.8398 39.8594 62.1693 39.5566 61.3359 39.5566C60.8151 39.5566 60.3268 39.6543 59.8711 39.8496C59.4219 40.0449 59.0182 40.3704 58.6602 40.8262L58.0059 40.5723L58.8359 33.5215H65.8281V35.2598H59.627L59.1191 39.4004C59.4121 39.1921 59.7962 38.987 60.2715 38.7852C60.7533 38.5768 61.2806 38.4727 61.8535 38.4727C62.3288 38.4727 62.8203 38.5475 63.3281 38.6973C63.8424 38.8405 64.3145 39.0814 64.7441 39.4199ZM54.5 2.5L84.8309 22V52L54.5 72.5L24.5 52.5V22.5L54.5 2.5Z" stroke="#4392F1" stroke-width="2" shape-rendering="crispEdges"/>
<path d="M105 22.7931V52.2685L75 73L45 52.2394V22.7931L54.4954 15.9783M54.4954 15.9783L35 2L5 22.7931V52.2685M54.4954 15.9783L64 22.7931V52.2685L54.5 58.5M54.4954 15.9783L54.5 15.975M56.3652 38.4629C56.209 38.4824 55.9974 38.515 55.7305 38.5605C55.4701 38.5996 55.2585 38.6582 55.0957 38.7363C54.9004 38.834 54.7604 38.974 54.6758 39.1562C54.5977 39.332 54.5586 39.5404 54.5586 39.7812V40.8555C54.5586 41.6367 54.5618 42.1641 54.5684 42.4375C54.5814 42.7109 54.5944 42.9355 54.6074 43.1113C53.7415 43.502 52.8789 43.8014 52.0195 44.0098C51.1602 44.2181 50.3171 44.3223 49.4902 44.3223C48.6048 44.3223 47.752 44.1562 46.9316 43.8242C46.1113 43.4922 45.3952 43.0202 44.7832 42.4082C44.1647 41.7897 43.6732 41.0378 43.3086 40.1523C42.944 39.2669 42.7617 38.2773 42.7617 37.1836C42.7617 36.1289 42.9342 35.1523 43.2793 34.2539C43.6309 33.349 44.1257 32.5645 44.7637 31.9004C45.3822 31.2493 46.1178 30.7448 46.9707 30.3867C47.8301 30.0221 48.748 29.8398 49.7246 29.8398C50.5059 29.8398 51.1862 29.9342 51.7656 30.123C52.3451 30.3118 52.8561 30.5397 53.2988 30.8066L53.6992 30.1426H54.4805L54.5684 34.9863H53.7676C53.6309 34.4525 53.4616 33.9284 53.2598 33.4141C53.0579 32.8932 52.7975 32.4277 52.4785 32.0176C52.1595 31.6074 51.7689 31.2819 51.3066 31.041C50.8509 30.7936 50.304 30.6699 49.666 30.6699C48.9694 30.6699 48.3477 30.8132 47.8008 31.0996C47.2539 31.3796 46.7786 31.7995 46.375 32.3594C45.9779 32.8997 45.6719 33.5736 45.457 34.3809C45.2422 35.1882 45.1348 36.0898 45.1348 37.0859C45.1348 37.9648 45.2389 38.7949 45.4473 39.5762C45.6621 40.3509 45.9714 41.0215 46.375 41.5879C46.7786 42.1673 47.2832 42.623 47.8887 42.9551C48.4941 43.2871 49.181 43.4531 49.9492 43.4531C50.5221 43.4531 51.043 43.3652 51.5117 43.1895C51.987 43.0137 52.3223 42.8281 52.5176 42.6328C52.5697 42.2943 52.5957 41.9525 52.5957 41.6074C52.6022 41.2624 52.6055 40.9694 52.6055 40.7285V39.9668C52.6055 39.6934 52.5664 39.4525 52.4883 39.2441C52.4167 39.0293 52.2637 38.873 52.0293 38.7754C51.8145 38.6777 51.5215 38.6061 51.1504 38.5605C50.7858 38.5085 50.4993 38.4759 50.291 38.4629V37.75H56.3652V38.4629ZM64.7441 39.4199C65.1738 39.7585 65.5286 40.1947 65.8086 40.7285C66.0951 41.2624 66.2383 41.9297 66.2383 42.7305C66.2383 44.1302 65.7598 45.2858 64.8027 46.1973C63.8457 47.1087 62.6315 47.5645 61.1602 47.5645C60.0208 47.5645 59.0573 47.2943 58.2695 46.7539C57.4818 46.2135 57.0879 45.5853 57.0879 44.8691C57.0879 44.5371 57.1693 44.2474 57.332 44C57.4948 43.7526 57.7454 43.6289 58.084 43.6289C58.4746 43.6289 58.7708 43.7331 58.9727 43.9414C59.181 44.1432 59.2852 44.3646 59.2852 44.6055C59.2852 44.8138 59.2493 45.0742 59.1777 45.3867C59.1061 45.6992 59.0508 45.9303 59.0117 46.0801C59.0638 46.1257 59.1484 46.1875 59.2656 46.2656C59.3828 46.3438 59.5228 46.4186 59.6855 46.4902C59.8548 46.5618 60.0599 46.6237 60.3008 46.6758C60.5482 46.7344 60.8346 46.7637 61.1602 46.7637C61.5768 46.7637 61.9707 46.679 62.3418 46.5098C62.7129 46.3405 63.0254 46.0898 63.2793 45.7578C63.5592 45.3932 63.7676 44.9766 63.9043 44.5078C64.0475 44.0456 64.1191 43.4564 64.1191 42.7402C64.1191 41.8223 63.862 41.0638 63.3477 40.4648C62.8398 39.8594 62.1693 39.5566 61.3359 39.5566C60.8151 39.5566 60.3268 39.6543 59.8711 39.8496C59.4219 40.0449 59.0182 40.3704 58.6602 40.8262L58.0059 40.5723L58.8359 33.5215H65.8281V35.2598H59.627L59.1191 39.4004C59.4121 39.1921 59.7962 38.987 60.2715 38.7852C60.7533 38.5768 61.2806 38.4727 61.8535 38.4727C62.3288 38.4727 62.8203 38.5475 63.3281 38.6973C63.8424 38.8405 64.3145 39.0814 64.7441 39.4199ZM54.5 2.5L84.8309 22V52L54.5 72.5L24.5 52.5V22.5L54.5 2.5Z" stroke="black" stroke-opacity="0.2" stroke-width="2" shape-rendering="crispEdges"/>
</g>
<defs>
<filter id="filter0_d_803_9" x="0" y="0.77652" width="110" height="81.4393" filterUnits="userSpaceOnUse" color-interpolation-filters="sRGB">
<feFlood flood-opacity="0" result="BackgroundImageFix"/>
<feColorMatrix in="SourceAlpha" type="matrix" values="0 0 0 0 0 0 0 0 0 0 0 0 0 0 0 0 0 0 127 0" result="hardAlpha"/>
<feOffset dy="4"/>
<feGaussianBlur stdDeviation="2"/>
<feComposite in2="hardAlpha" operator="out"/>
<feColorMatrix type="matrix" values="0 0 0 0 0 0 0 0 0 0 0 0 0 0 0 0 0 0 0.25 0"/>
<feBlend mode="normal" in2="BackgroundImageFix" result="effect1_dropShadow_803_9"/>
<feBlend mode="normal" in="SourceGraphic" in2="effect1_dropShadow_803_9" result="shape"/>
</filter>
</defs>
</svg>
