<svg width="38" height="38" viewBox="0 0 38 38" fill="none" xmlns="http://www.w3.org/2000/svg">
<g clip-path="url(#clip0_105_127146)">
<path d="M37.2082 8.70824H0.791763C0.354568 8.70824 0 8.35367 0 7.91676C0 7.47957 0.354568 7.125 0.791763 7.125H37.2082C37.6454 7.125 38 7.47957 38 7.91676C38 8.35367 37.6454 8.70824 37.2082 8.70824Z" fill="#F9F7F3"/>
<path d="M37.2082 19.7915H0.791763C0.354568 19.7915 0 19.4367 0 18.9998C0 18.5629 0.354568 18.208 0.791763 18.208H37.2082C37.6454 18.208 38 18.5629 38 18.9998C38 19.4367 37.6454 19.7915 37.2082 19.7915Z" fill="#F9F7F3"/>
<path d="M37.2082 30.8752H0.791763C0.354568 30.8752 0 30.5207 0 30.0835C0 29.6466 0.354568 29.292 0.791763 29.292H37.2082C37.6454 29.292 38 29.6466 38 30.0835C38 30.5207 37.6454 30.8752 37.2082 30.8752Z" fill="#F9F7F3"/>
</g>
<defs>
<clipPath id="clip0_105_127146">
<rect width="38" height="38" fill="white"/>
</clipPath>
</defs>
</svg>
