<svg width="882" height="308" viewBox="0 0 882 308" fill="none" xmlns="http://www.w3.org/2000/svg">
<rect width="882" height="308" fill="#C4C4C4"/>
<path d="M236.6 165.1C232 169.7 225.1 172.2 219 172.2C201.7 172.2 195 160.1 194.9 148.5C194.8 136.8 202.1 124.2 219 124.2C225.1 124.2 231.3 126.3 235.9 130.8L244.7 122.3C237.5 115.2 228.5 111.6 219 111.6C193.7 111.6 181.8 130.2 181.9 148.5C182 166.7 193 184.6 219 184.6C229.1 184.6 238.4 181.3 245.6 174.2L236.6 165.1ZM251.164 113.1V183H263.264V113.1H251.164ZM286.118 133.5V183H273.918V133.5H286.118ZM272.818 119.8C272.818 129.3 287.218 129.3 287.218 119.8C287.218 110.3 272.818 110.3 272.818 119.8ZM346.06 162.7C347.96 142.4 337.66 132.2 321.16 132.2C305.16 132.2 294.96 143 294.96 158C294.96 173.8 305.06 184.3 322.06 184.3C329.56 184.3 338.06 181.7 343.26 176.3L335.46 168.6C332.66 171.5 326.76 173.2 322.26 173.2C313.66 173.2 308.36 168.8 307.56 162.7H346.06ZM307.76 152.6C309.56 146.2 314.96 143 321.56 143C328.56 143 333.56 146.2 334.36 152.6H307.76ZM403.961 183V157.1C403.961 141.6 394.661 132.9 383.061 132.9C376.861 132.9 371.861 135.4 366.861 140.3L366.061 133.6H355.161V183H367.261V157.8C367.261 150.3 372.361 144 379.861 144C387.661 144 391.761 149.7 391.761 157.2V183H403.961ZM417.297 121.1V133.8H408.097V144.3H417.297V165.6C417.297 177.9 424.297 184 434.997 183.6C438.697 183.5 441.597 182.9 445.097 181.5L441.697 171.1C439.897 172 437.697 172.6 435.797 172.6C431.997 172.6 429.397 170.3 429.397 165.6V144.3H443.097V133.8H429.497V119.8L417.297 121.1ZM473.353 113V183H522.553V170.8H486.553V113H473.353ZM554.149 132.7C538.449 132.7 528.649 144.3 528.649 158.4C528.649 172.6 538.249 184.1 554.249 184.1C570.249 184.1 579.949 172.6 579.949 158.4C579.949 144.3 569.849 132.7 554.149 132.7ZM554.249 143.8C562.449 143.8 567.649 151 567.649 158.4C567.649 165.9 563.149 172.9 554.249 172.9C545.349 172.9 540.849 165.9 540.849 158.4C540.849 151 545.449 143.8 554.249 143.8ZM622.171 134.9C618.771 132.6 614.771 132.1 610.871 132.1C597.071 132.1 585.871 141.7 585.871 157.1C585.871 172.5 595.471 181.9 610.871 181.9C616.971 181.9 623.371 185 623.371 191.8C623.371 198.6 617.871 202.4 610.871 202.4C603.871 202.4 597.971 198.2 597.971 191.8H585.871C585.871 205.1 596.571 213.8 610.871 213.8C625.171 213.8 635.571 205.4 635.571 191.8C635.571 185.5 633.571 179.6 625.371 175.5C633.471 171.8 635.771 163.2 635.771 157.1C635.771 151.7 634.371 146.8 630.571 142.5L636.071 135.5L627.071 128.7L622.171 134.9ZM610.871 143.2C617.871 143.2 623.671 148.6 623.671 157.1C623.671 165.6 617.871 170.8 610.871 170.8C603.771 170.8 597.971 165.7 597.971 157.1C597.971 148.5 603.771 143.2 610.871 143.2ZM666.747 132.7C651.047 132.7 641.247 144.3 641.247 158.4C641.247 172.6 650.847 184.1 666.847 184.1C682.847 184.1 692.547 172.6 692.547 158.4C692.547 144.3 682.447 132.7 666.747 132.7ZM666.847 143.8C675.047 143.8 680.247 151 680.247 158.4C680.247 165.9 675.747 172.9 666.847 172.9C657.947 172.9 653.447 165.9 653.447 158.4C653.447 151 658.047 143.8 666.847 143.8Z" fill="#F7F7FF"/>
</svg>
