<svg width="20" height="23" viewBox="0 0 20 23" fill="none" xmlns="http://www.w3.org/2000/svg">
<path d="M20 22.52C20 21.2068 19.7413 19.9064 19.2388 18.6932C18.7362 17.4799 17.9997 16.3775 17.0711 15.4489C16.1425 14.5203 15.0401 13.7838 13.8268 13.2812C12.6136 12.7787 11.3132 12.52 10 12.52C8.68678 12.52 7.38642 12.7787 6.17317 13.2812C4.95991 13.7838 3.85752 14.5203 2.92893 15.4489C2.00035 16.3775 1.26375 17.4799 0.761204 18.6932C0.258657 19.9064 -1.14805e-07 21.2068 0 22.52H2C2 21.4694 2.20693 20.4291 2.60896 19.4585C3.011 18.4879 3.60028 17.606 4.34315 16.8631C5.08601 16.1203 5.96793 15.531 6.93853 15.129C7.90914 14.7269 8.94942 14.52 10 14.52C11.0506 14.52 12.0909 14.7269 13.0615 15.129C14.0321 15.531 14.914 16.1203 15.6569 16.8631C16.3997 17.606 16.989 18.4879 17.391 19.4585C17.7931 20.4291 18 21.4694 18 22.52H20Z" fill="#000022"/>
<path d="M0.56 21.32H19.36V22.52H0.56V21.32Z" fill="#000022"/>
<path d="M15.96 6C15.96 9.31371 13.2737 12 9.96 12C6.64629 12 3.96 9.31371 3.96 6C3.96 2.68629 6.64629 0 9.96 0C13.2737 0 15.96 2.68629 15.96 6ZM5.16 6C5.16 8.65097 7.30903 10.8 9.96 10.8C12.611 10.8 14.76 8.65097 14.76 6C14.76 3.34903 12.611 1.2 9.96 1.2C7.30903 1.2 5.16 3.34903 5.16 6Z" fill="#000022"/>
</svg>
